<svg width="25" height="24" viewBox="0 0 25 24" fill="none" xmlns="http://www.w3.org/2000/svg">
<path d="M7.33333 5.75C6.92333 5.75 6.58333 5.41 6.58333 5V2C6.58333 1.59 6.92333 1.25 7.33333 1.25C7.74333 1.25 8.08333 1.59 8.08333 2V5C8.08333 5.41 7.74333 5.75 7.33333 5.75Z" fill="white"/>
<path d="M15.3333 5.75C14.9233 5.75 14.5833 5.41 14.5833 5V2C14.5833 1.59 14.9233 1.25 15.3333 1.25C15.7433 1.25 16.0833 1.59 16.0833 2V5C16.0833 5.41 15.7433 5.75 15.3333 5.75Z" fill="white"/>
<path opacity="0.4" d="M20.3333 8.5V17C20.3333 20 18.8333 22 15.3333 22H7.33333C3.83333 22 2.33333 20 2.33333 17V8.5C2.33333 5.5 3.83333 3.5 7.33333 3.5H15.3333C18.8333 3.5 20.3333 5.5 20.3333 8.5Z" fill="white"/>
<path d="M13.3333 11.75H7.33333C6.92333 11.75 6.58333 11.41 6.58333 11C6.58333 10.59 6.92333 10.25 7.33333 10.25H13.3333C13.7433 10.25 14.0833 10.59 14.0833 11C14.0833 11.41 13.7433 11.75 13.3333 11.75Z" fill="white"/>
<path d="M10.3333 16.75H7.33333C6.92333 16.75 6.58333 16.41 6.58333 16C6.58333 15.59 6.92333 15.25 7.33333 15.25H10.3333C10.7433 15.25 11.0833 15.59 11.0833 16C11.0833 16.41 10.7433 16.75 10.3333 16.75Z" fill="white"/>
<path d="M21.3333 13.63C20.4433 12.92 19.3133 12.5 18.0833 12.5C16.8533 12.5 15.7033 12.93 14.8033 13.66C13.5933 14.61 12.8333 16.1 12.8333 17.75C12.8333 18.73 13.1133 19.67 13.5933 20.45C13.9633 21.06 14.4433 21.59 15.0133 22C15.8733 22.63 16.9333 23 18.0833 23C19.4133 23 20.6133 22.51 21.5333 21.69C21.9433 21.35 22.2933 20.93 22.5733 20.45C23.0533 19.67 23.3333 18.73 23.3333 17.75C23.3333 16.08 22.5533 14.59 21.3333 13.63ZM18.0833 20.25C18.0833 18.87 16.9633 17.75 15.5833 17.75C16.9633 17.75 18.0833 16.63 18.0833 15.25C18.0833 16.63 19.2033 17.75 20.5833 17.75C19.2033 17.75 18.0833 18.87 18.0833 20.25Z" fill="white"/>
</svg>
