<svg width="24" height="24" viewBox="0 0 24 24" fill="none" xmlns="http://www.w3.org/2000/svg">
<path opacity="0.4" d="M22.18 13.66C22.03 12.01 21.59 10.25 18.38 10.25H5.62C2.41 10.25 1.98 12.01 1.82 13.66L1.26 19.75C1.19 20.51 1.44 21.27 1.96 21.84C2.49 22.42 3.24 22.75 4.04 22.75H5.92C7.54 22.75 7.85 21.82 8.05 21.21L8.25 20.61C8.48 19.92 8.54 19.75 9.44 19.75H14.56C15.46 19.75 15.49 19.85 15.75 20.61L15.95 21.21C16.15 21.82 16.46 22.75 18.08 22.75H19.96C20.75 22.75 21.51 22.42 22.04 21.84C22.56 21.27 22.81 20.51 22.74 19.75L22.18 13.66Z" fill="#060521"/>
<path d="M21 7.24999H20C19.99 7.24999 19.99 7.24999 19.98 7.24999L19.6 5.43999C19.24 3.68999 18.49 2.07999 15.51 2.07999H12.75H11.25H8.49C5.51 2.07999 4.76 3.68999 4.4 5.43999L4.02 7.24999C4.01 7.24999 4.01 7.24999 4 7.24999H3C2.59 7.24999 2.25 7.58999 2.25 7.99999C2.25 8.40999 2.59 8.74999 3 8.74999H3.71L3.29 10.75C3.83 10.44 4.58 10.25 5.62 10.25H18.38C19.42 10.25 20.17 10.44 20.71 10.75L20.29 8.74999H21C21.41 8.74999 21.75 8.40999 21.75 7.99999C21.75 7.58999 21.41 7.24999 21 7.24999Z" fill="#060521"/>
<path d="M9 15.75H6C5.59 15.75 5.25 15.41 5.25 15C5.25 14.59 5.59 14.25 6 14.25H9C9.41 14.25 9.75 14.59 9.75 15C9.75 15.41 9.41 15.75 9 15.75Z" fill="#060521"/>
<path d="M18 15.75H15C14.59 15.75 14.25 15.41 14.25 15C14.25 14.59 14.59 14.25 15 14.25H18C18.41 14.25 18.75 14.59 18.75 15C18.75 15.41 18.41 15.75 18 15.75Z" fill="#060521"/>
</svg>
