<svg width="126" height="41" viewBox="0 0 126 41" fill="none" xmlns="http://www.w3.org/2000/svg">
<g clip-path="url(#clip0_1_100)">
<path d="M18.9523 11.5726C18.5586 8.19873 18.1429 4.63644 18.1429 0.5H21.8571C21.8571 4.58998 21.4434 8.14774 21.0502 11.5254C20.7299 14.278 20.4235 16.911 20.3666 19.615C22.2316 17.6697 23.863 15.607 25.572 13.4463C27.6791 10.7823 29.9043 7.96945 32.829 5.04464L35.4554 7.67104C32.5633 10.5631 29.7547 12.7861 27.0884 14.8966L27.0859 14.8985C24.9141 16.6178 22.8365 18.2624 20.885 20.1334C23.579 20.0765 26.1911 19.7717 28.9272 19.4524C32.3011 19.0586 35.8636 18.6429 40 18.6429V22.3571C35.9102 22.3571 32.3524 21.9432 28.9749 21.5502L28.9724 21.55C26.2204 21.2298 23.5882 20.9236 20.885 20.8666C22.829 22.7302 24.8906 24.3609 27.0499 26.0687L27.0533 26.0716C29.7174 28.1789 32.5304 30.4039 35.4554 33.329L32.829 35.9554C29.9369 33.0634 27.714 30.255 25.6038 27.5889L25.5988 27.582L25.5946 27.5765C23.8775 25.4081 22.2349 23.3338 20.3666 21.385C20.4235 24.089 20.7299 26.722 21.0502 29.4746C21.4434 32.8523 21.8571 36.41 21.8571 40.5H18.1429C18.1429 36.3636 18.5586 32.8013 18.9523 29.4274L18.9531 29.4219C19.272 26.6877 19.5765 24.0772 19.6334 21.385C17.7651 23.3338 16.1225 25.4081 14.4054 27.5765L14.4012 27.582L14.3962 27.5889C12.286 30.255 10.0631 33.0634 7.17104 35.9554L4.54464 33.329C7.46959 30.4039 10.2826 28.1789 12.9467 26.0716L12.9501 26.0687C15.1094 24.3609 17.171 22.7302 19.115 20.8666C16.411 20.9237 13.7779 21.23 11.0251 21.5502C7.6476 21.9432 4.08984 22.3571 0 22.3571V18.6429C4.13644 18.6429 7.69894 19.0586 11.0728 19.4524C13.8089 19.7717 16.421 20.0765 19.115 20.1334C17.1627 18.2617 15.0843 16.6166 12.9116 14.8966C10.2453 12.7861 7.43666 10.5631 4.54464 7.67104L7.17104 5.04464C10.0957 7.96945 12.3209 10.7823 14.428 13.4463C16.137 15.6069 17.7684 17.6696 19.6334 19.6148C19.5765 16.9227 19.272 14.3123 18.9531 11.5781L18.9523 11.5726Z" fill="#362EED"/>
</g>
<path d="M62.978 25.272H57.214L56.29 28H52.352L57.94 12.556H62.296L67.884 28H63.902L62.978 25.272ZM62.01 22.368L60.096 16.714L58.204 22.368H62.01ZM73.3467 11.72V28H69.5847V11.72H73.3467ZM79.835 17.462C80.2017 16.89 80.7077 16.428 81.353 16.076C81.9983 15.724 82.7537 15.548 83.619 15.548C84.631 15.548 85.5477 15.8047 86.369 16.318C87.1903 16.8313 87.8357 17.5647 88.305 18.518C88.789 19.4713 89.031 20.5787 89.031 21.84C89.031 23.1013 88.789 24.216 88.305 25.184C87.8357 26.1373 87.1903 26.878 86.369 27.406C85.5477 27.9193 84.631 28.176 83.619 28.176C82.7683 28.176 82.013 28 81.353 27.648C80.7077 27.296 80.2017 26.8413 79.835 26.284V33.852H76.073V15.724H79.835V17.462ZM85.203 21.84C85.203 20.9013 84.939 20.168 84.411 19.64C83.8977 19.0973 83.2597 18.826 82.497 18.826C81.749 18.826 81.111 19.0973 80.583 19.64C80.0697 20.1827 79.813 20.9233 79.813 21.862C79.813 22.8007 80.0697 23.5413 80.583 24.084C81.111 24.6267 81.749 24.898 82.497 24.898C83.245 24.898 83.883 24.6267 84.411 24.084C84.939 23.5267 85.203 22.7787 85.203 21.84ZM92.8966 14.448C92.2366 14.448 91.694 14.2573 91.2686 13.876C90.858 13.48 90.6526 12.996 90.6526 12.424C90.6526 11.8373 90.858 11.3533 91.2686 10.972C91.694 10.576 92.2366 10.378 92.8966 10.378C93.542 10.378 94.07 10.576 94.4806 10.972C94.906 11.3533 95.1186 11.8373 95.1186 12.424C95.1186 12.996 94.906 13.48 94.4806 13.876C94.07 14.2573 93.542 14.448 92.8966 14.448ZM94.7666 15.724V28H91.0046V15.724H94.7666ZM104.973 15.592C106.41 15.592 107.554 16.0613 108.405 17C109.27 17.924 109.703 19.2 109.703 20.828V28H105.963V21.334C105.963 20.5127 105.75 19.8747 105.325 19.42C104.9 18.9653 104.328 18.738 103.609 18.738C102.89 18.738 102.318 18.9653 101.893 19.42C101.468 19.8747 101.255 20.5127 101.255 21.334V28H97.4929V15.724H101.255V17.352C101.636 16.8093 102.15 16.384 102.795 16.076C103.44 15.7533 104.166 15.592 104.973 15.592ZM111.569 21.84C111.569 20.5787 111.804 19.4713 112.273 18.518C112.757 17.5647 113.41 16.8313 114.231 16.318C115.052 15.8047 115.969 15.548 116.981 15.548C117.846 15.548 118.602 15.724 119.247 16.076C119.907 16.428 120.413 16.89 120.765 17.462V15.724H124.527V28H120.765V26.262C120.398 26.834 119.885 27.296 119.225 27.648C118.58 28 117.824 28.176 116.959 28.176C115.962 28.176 115.052 27.9193 114.231 27.406C113.41 26.878 112.757 26.1373 112.273 25.184C111.804 24.216 111.569 23.1013 111.569 21.84ZM120.765 21.862C120.765 20.9233 120.501 20.1827 119.973 19.64C119.46 19.0973 118.829 18.826 118.081 18.826C117.333 18.826 116.695 19.0973 116.167 19.64C115.654 20.168 115.397 20.9013 115.397 21.84C115.397 22.7787 115.654 23.5267 116.167 24.084C116.695 24.6267 117.333 24.898 118.081 24.898C118.829 24.898 119.46 24.6267 119.973 24.084C120.501 23.5413 120.765 22.8007 120.765 21.862Z" fill="#060521"/>
<defs>
<clipPath id="clip0_1_100">
<rect width="40" height="40" fill="white" transform="translate(0 0.5)"/>
</clipPath>
</defs>
</svg>
