<svg width="24" height="24" viewBox="0 0 24 24" fill="none" xmlns="http://www.w3.org/2000/svg">
<path d="M20.48 10.69L2.00999 15.72C2.11999 14.13 3.10999 12.46 5.10999 11.97C4.51999 9.64001 5.01999 7.45001 6.53999 5.86001C8.26999 4.05001 11.03 3.33001 13.41 4.07001C15.6 4.74001 17.14 6.54001 17.69 9.04001C18.78 9.29001 19.75 9.86001 20.48 10.69Z" fill="#060521"/>
<path opacity="0.4" d="M20.17 18.74C19.13 19.69 17.77 20.22 16.35 20.22H5.97C3.23 20.02 2 17.91 2 16.03C2 15.93 2 15.83 2.01 15.72L20.48 10.69C21.05 11.3 21.48 12.05 21.74 12.91C22.4 15.08 21.8 17.31 20.17 18.74Z" fill="#060521"/>
</svg>
