<svg width="63" height="23" viewBox="0 0 63 23" fill="none" xmlns="http://www.w3.org/2000/svg">
<rect width="63" height="23" rx="11.5" fill="#362EED"/>
<path d="M13.97 10.24C13.97 10.6467 13.8767 11.02 13.69 11.36C13.5033 11.6933 13.2167 11.9633 12.83 12.17C12.4433 12.3767 11.9633 12.48 11.39 12.48H10.33V15H8.62V7.98H11.39C11.95 7.98 12.4233 8.07667 12.81 8.27C13.1967 8.46333 13.4867 8.73 13.68 9.07C13.8733 9.41 13.97 9.8 13.97 10.24ZM11.26 11.12C11.5867 11.12 11.83 11.0433 11.99 10.89C12.15 10.7367 12.23 10.52 12.23 10.24C12.23 9.96 12.15 9.74333 11.99 9.59C11.83 9.43667 11.5867 9.36 11.26 9.36H10.33V11.12H11.26ZM18.1802 15.07C17.5202 15.07 16.9136 14.9167 16.3602 14.61C15.8136 14.3033 15.3769 13.8767 15.0502 13.33C14.7302 12.7767 14.5702 12.1567 14.5702 11.47C14.5702 10.7833 14.7302 10.1667 15.0502 9.62C15.3769 9.07333 15.8136 8.64667 16.3602 8.34C16.9136 8.03333 17.5202 7.88 18.1802 7.88C18.8402 7.88 19.4436 8.03333 19.9902 8.34C20.5436 8.64667 20.9769 9.07333 21.2902 9.62C21.6102 10.1667 21.7702 10.7833 21.7702 11.47C21.7702 12.1567 21.6102 12.7767 21.2902 13.33C20.9702 13.8767 20.5369 14.3033 19.9902 14.61C19.4436 14.9167 18.8402 15.07 18.1802 15.07ZM18.1802 13.51C18.7402 13.51 19.1869 13.3233 19.5202 12.95C19.8602 12.5767 20.0302 12.0833 20.0302 11.47C20.0302 10.85 19.8602 10.3567 19.5202 9.99C19.1869 9.61667 18.7402 9.43 18.1802 9.43C17.6136 9.43 17.1602 9.61333 16.8202 9.98C16.4869 10.3467 16.3202 10.8433 16.3202 11.47C16.3202 12.09 16.4869 12.5867 16.8202 12.96C17.1602 13.3267 17.6136 13.51 18.1802 13.51ZM28.0716 10.24C28.0716 10.6467 27.9782 11.02 27.7916 11.36C27.6049 11.6933 27.3182 11.9633 26.9316 12.17C26.5449 12.3767 26.0649 12.48 25.4916 12.48H24.4316V15H22.7216V7.98H25.4916C26.0516 7.98 26.5249 8.07667 26.9116 8.27C27.2982 8.46333 27.5882 8.73 27.7816 9.07C27.9749 9.41 28.0716 9.8 28.0716 10.24ZM25.3616 11.12C25.6882 11.12 25.9316 11.0433 26.0916 10.89C26.2516 10.7367 26.3316 10.52 26.3316 10.24C26.3316 9.96 26.2516 9.74333 26.0916 9.59C25.9316 9.43667 25.6882 9.36 25.3616 9.36H24.4316V11.12H25.3616ZM30.6418 7.98V12.18C30.6418 12.6 30.7451 12.9233 30.9518 13.15C31.1585 13.3767 31.4618 13.49 31.8618 13.49C32.2618 13.49 32.5685 13.3767 32.7818 13.15C32.9951 12.9233 33.1018 12.6 33.1018 12.18V7.98H34.8118V12.17C34.8118 12.7967 34.6785 13.3267 34.4118 13.76C34.1451 14.1933 33.7851 14.52 33.3318 14.74C32.8851 14.96 32.3851 15.07 31.8318 15.07C31.2785 15.07 30.7818 14.9633 30.3418 14.75C29.9085 14.53 29.5651 14.2033 29.3118 13.77C29.0585 13.33 28.9318 12.7967 28.9318 12.17V7.98H30.6418ZM37.7226 13.68H39.9626V15H36.0126V7.98H37.7226V13.68ZM45.1482 13.76H42.5282L42.1082 15H40.3182L42.8582 7.98H44.8382L47.3782 15H45.5682L45.1482 13.76ZM44.7082 12.44L43.8382 9.87L42.9782 12.44H44.7082ZM51.7313 15L50.2713 12.35H49.8613V15H48.1513V7.98H51.0213C51.5746 7.98 52.0446 8.07667 52.4313 8.27C52.8246 8.46333 53.1179 8.73 53.3113 9.07C53.5046 9.40333 53.6013 9.77667 53.6013 10.19C53.6013 10.6567 53.4679 11.0733 53.2013 11.44C52.9413 11.8067 52.5546 12.0667 52.0413 12.22L53.6613 15H51.7313ZM49.8613 11.14H50.9213C51.2346 11.14 51.4679 11.0633 51.6213 10.91C51.7813 10.7567 51.8613 10.54 51.8613 10.26C51.8613 9.99333 51.7813 9.78333 51.6213 9.63C51.4679 9.47667 51.2346 9.4 50.9213 9.4H49.8613V11.14Z" fill="white"/>
</svg>
