<svg width="20" height="21" viewBox="0 0 20 21" fill="none" xmlns="http://www.w3.org/2000/svg">
<path opacity="0.4" d="M4.78333 13.8333C4.875 13.425 4.70833 12.8417 4.41667 12.55L2.39167 10.525C1.75833 9.89167 1.50833 9.21667 1.69167 8.63333C1.88333 8.05 2.475 7.65 3.35833 7.5L5.95833 7.06667C6.33333 7 6.79167 6.66667 6.96667 6.325L8.4 3.45C8.81667 2.625 9.38333 2.16667 10 2.16667C10.6167 2.16667 11.1833 2.625 11.6 3.45L13.0333 6.325C13.1417 6.54167 13.3667 6.75 13.6083 6.89167L4.63333 15.8667C4.51667 15.9833 4.31667 15.875 4.35 15.7083L4.78333 13.8333Z" fill="#FF9A3D"/>
<path d="M15.5833 12.55C15.2833 12.85 15.1167 13.425 15.2167 13.8333L15.7917 16.3417C16.0333 17.3833 15.8833 18.1667 15.3667 18.5417C15.1583 18.6917 14.9083 18.7667 14.6167 18.7667C14.1917 18.7667 13.6917 18.6083 13.1417 18.2833L10.7 16.8333C10.3167 16.6083 9.68334 16.6083 9.3 16.8333L6.85834 18.2833C5.93334 18.825 5.14167 18.9167 4.63334 18.5417C4.44167 18.4 4.3 18.2083 4.20834 17.9583L14.3417 7.825C14.725 7.44167 15.2667 7.26667 15.7917 7.35833L16.6333 7.5C17.5167 7.65 18.1083 8.05 18.3 8.63333C18.4833 9.21667 18.2333 9.89167 17.6 10.525L15.5833 12.55Z" fill="#FF9A3D"/>
</svg>
